<?xml version="1.0" encoding="UTF-8"?>
<!DOCTYPE svg PUBLIC "-//W3C//DTD SVG 1.1//EN" "http://www.w3.org/Graphics/SVG/1.1/DTD/svg11.dtd">
<svg xmlns="http://www.w3.org/2000/svg" version="1.1" width="auto" height="500px" style="shape-rendering:geometricPrecision; text-rendering:geometricPrecision; image-rendering:optimizeQuality; fill-rule:evenodd; clip-rule:evenodd" xmlns:xlink="http://www.w3.org/1999/xlink">

<g><path style="opacity:0.989" fill="#fefbfa" d="M 3422.5,566.5 C 3927.04,555.235 4404.04,663.735 4853.5,892C 5043.86,990.117 5221.19,1107.12 5385.5,1243C 5062.5,1243.67 4739.5,1243.67 4416.5,1243C 4042.78,1095.09 3655.78,1040.42 3255.5,1079C 3023.67,1101.96 2799.67,1156.62 2583.5,1243C 2260.5,1243.67 1937.5,1243.67 1614.5,1243C 1971.1,949.209 2376.1,748.876 2829.5,642C 3024.82,597.281 3222.49,572.115 3422.5,566.5 Z"/></g>
<g><path style="opacity:0.991" fill="#fefbfa" d="M 43.5,1488.5 C 2347.5,1488.5 4651.5,1488.5 6955.5,1488.5C 6955.65,1489.55 6955.48,1490.55 6955,1491.5C 6715.55,1869.66 6476.38,2247.5 6237.5,2625C 5931.5,2625.5 5625.5,2625.67 5319.5,2625.5C 5319.35,2624.45 5319.52,2623.45 5320,2622.5C 5397.73,2508.2 5475.56,2394.03 5553.5,2280C 5429.03,2278.79 5304.69,2278.79 5180.5,2280C 4771.49,2280.59 4362.49,2281.42 3953.5,2282.5C 3952.46,2955.64 3951.3,3628.64 3950,4301.5C 3800.31,4476.87 3650.14,4651.87 3499.5,4826.5C 3370,4652.17 3240.5,4477.83 3111,4303.5C 3110.5,3629.83 3110.33,2956.17 3110.5,2282.5C 2943.26,2283.11 2776.1,2283.11 2609,2282.5C 2544.2,2283.17 2479.36,2283.84 2414.5,2284.5C 2410.72,2283.87 2406.89,2283.53 2403,2283.5C 2104.17,2284.8 1805.34,2285.64 1506.5,2286C 1576.29,2398.42 1646.46,2510.59 1717,2622.5C 1717.48,2623.45 1717.65,2624.45 1717.5,2625.5C 1400.17,2625.67 1082.83,2625.5 765.5,2625C 531.74,2257.88 297.907,1890.72 64,1523.5C 57.3333,1512.83 50.6667,1502.17 44,1491.5C 43.5172,1490.55 43.3505,1489.55 43.5,1488.5 Z"/></g>
<g><path style="opacity:0.987" fill="#fefbfa" d="M 621.5,2820.5 C 622.552,2820.35 623.552,2820.52 624.5,2821C 634.5,2828.33 644.5,2835.67 654.5,2843C 661.095,2845.25 667.762,2847.25 674.5,2849C 672.86,2853.89 671.527,2858.89 670.5,2864C 679.279,2901.62 688.446,2939.12 698,2976.5C 811,3154.5 924,3332.5 1037,3510.5C 1035.57,3995.2 1163.57,4442.2 1421,4851.5C 1661.69,5224.87 1978.52,5514.37 2371.5,5720C 2401.81,5735.07 2431.97,5750.24 2462,5765.5C 2601.46,5986.92 2741.29,6208.09 2881.5,6429C 2483.12,6343.75 2118.45,6184.09 1787.5,5950C 1375.95,5655.83 1058.45,5282.33 835,4829.5C 608.081,4358.9 510.415,3862.57 542,3340.5C 553.015,3164.75 579.515,2991.42 621.5,2820.5 Z"/></g>
<g><path style="opacity:0.989" fill="#fefbfa" d="M 6383.5,2846.5 C 6384.12,2846.61 6384.62,2846.94 6385,2847.5C 6475.52,3237.3 6488.19,3629.63 6423,4024.5C 6337.4,4519.15 6141.4,4963.15 5835,5356.5C 5526.38,5747.53 5144.55,6044.03 4689.5,6246C 4503.36,6327.7 4310.69,6389.04 4111.5,6430C 4251.7,6209.3 4391.7,5988.47 4531.5,5767.5C 4968.13,5562.38 5317.29,5257.05 5579,4851.5C 5835.08,4445.03 5962.91,4001.03 5962.5,3519.5C 5962.44,3515.08 5962.94,3510.75 5964,3506.5C 6104.04,3286.63 6243.87,3066.63 6383.5,2846.5 Z"/></g>
<g><path style="opacity:0.99" fill="#ff0070" d="M 915.5,2862.5 C 1589.5,2862.5 2263.5,2862.5 2937.5,2862.5C 2937.5,3121.83 2937.5,3381.17 2937.5,3640.5C 2741.17,3639.08 2544.83,3637.91 2348.5,3637C 2733.33,4226.5 3118.17,4816 3503,5405.5C 3645.64,5223.36 3788.48,5041.36 3931.5,4859.5C 4227.5,4858.17 4523.5,4858.17 4819.5,4859.5C 4385.14,5544.7 3950.97,6230.03 3517,6915.5C 3510.24,6926.04 3503.24,6936.37 3496,6946.5C 2671.09,5642.36 1846.43,4338.03 1022,3033.5C 987.167,2977.16 951.833,2921.16 916,2865.5C 915.517,2864.55 915.351,2863.55 915.5,2862.5 Z"/></g>
<g><path style="opacity:0.99" fill="#fe006f" d="M 4122.5,2862.5 C 4776.17,2862.5 5429.83,2862.5 6083.5,2862.5C 6077.96,2872.57 6072.13,2882.57 6066,2892.5C 5787.92,3330.33 5510.08,3768.33 5232.5,4206.5C 4949.83,4207.37 4667.17,4206.87 4384.5,4205C 4363.16,4204.83 4341.83,4204.33 4320.5,4203.5C 4450.46,4015.74 4580.8,3828.24 4711.5,3641C 4512.83,3640.5 4314.17,3640.33 4115.5,3640.5C 4118.1,3381.17 4120.43,3121.84 4122.5,2862.5 Z"/></g>
</svg>
