<svg style="enable-background:new 0 0 32 32;" version="1.1" viewBox="0 0 32 32" xml:space="preserve" xmlns="http://www.w3.org/2000/svg" xmlns:xlink="http://www.w3.org/1999/xlink">
    <defs>
        <linearGradient id="instagramGradient" x1="0%" y1="0%" x2="100%" y2="100%">
            <stop offset="0%" style="stop-color:#D9296C; stop-opacity:1" />
            <stop offset="100%" style="stop-color:#FBCF25; stop-opacity:1" />
        </linearGradient>
    </defs>
    <g>
        <path fill="url(#instagramGradient)" d="M23.31,2H8.69C5,2,2,5,2,8.69V21h2V8.69C4,6.1,6.1,4,8.69,4h14.63C25.9,4,28,6.1,28,8.69v14.63C28,25.9,25.9,28,23.31,28 H8.69C6.1,28,4,25.9,4,23.31H2C2,27,5,30,8.69,30h14.63C27,30,30,27,30,23.31V8.69C30,5,27,2,23.31,2z"/>
        <path fill="url(#instagramGradient)" d="M7,16c0,4.96,4.04,9,9,9s9-4.04,9-9s-4.04-9-9-9S7,11.04,7,16z M23,16c0,3.86-3.14,7-7,7s-7-3.14-7-7s3.14-7,7-7 S23,12.14,23,16z"/>
        <circle cx="24" cy="7" r="2" fill="url(#instagramGradient)"/>
    </g>
</svg>
